{"title":"JACKIE BROWN 1997-IN H.264 BY WINKER","uid":5209089,"size":1049256502,"categoryP":"video","categoryS":"movies","magnet":"?xt=urn:btih:64f607fbbe61ab2dbda3d40017e510fcb202158c&amp;dn=JACKIE+BROWN+1997-IN+H.264+BY+WINKER&amp;tr=udp%3A%2F%2Ftracker.openbittorrent.com%3A80&amp;tr=udp%3A%2F%2Fopen.demonii.com%3A1337&amp;tr=udp%3A%2F%2Ftracker.coppersurfer.tk%3A6969&amp;tr=udp%3A%2F%2Fexodus.desync.com%3A6969","seeders":0,"leechers":0,"uploader":"alanwatson","files":-1,"time":1260508873,"description":"From filmmaking sensation Quentin Tarantino comes this edgy, critically acclaimed action thriller starring some of the biggest names in Hollywood including Samuel L. Jackson, Robert De Niro, Michael Keaton and Bridget Fonda.\n\nWhat do a sexy stewardess, a street-tough gunrunner, a lonely bail bondsman, a shifty ex-con, an overambitious cop and a stoned-out beach bunny have in common? They're all chasing a half million in cash! The only questions among these players are who's conning who and who'll walk away with the goods.\n\nFormat                           : MPEG-4\nFormat profile                   : Base Media / Version 2\nCodec ID                         : mp42\nFile size                        : 1 000 MiB\nDuration                         : 2h 28mn\nOverall bit rate                 : 945 Kbps\nEncoded date                     : UTC 2009-12-09 15:43:27\nTagged date                      : UTC 2009-12-09 23:24:46\nWriting application              : HandBrake 0.9.3 2008112300\n\nVideo\nID                               : 1\nFormat                           : AVC\nFormat/Info                      : Advanced Video Codec\nFormat profile                   : &lt;a class=&quot;__cf_email__&quot; href=&quot;/cdn-cgi/l/email-protection&quot; data-cfemail=&quot;7f321e16113f334b514f&quot;&gt;[email&amp;#160;protected]&lt;/a&gt;&lt;script cf-hash='f9e31' type=&quot;text/javascript&quot;&gt;\n/* &lt;![CDATA[ */!function(){try{var t=&quot;currentScript&quot;in document?document.currentScript:function(){for(var t=document.getElementsByTagName(&quot;script&quot;),e=t.length;e--;)if(t[e].getAttribute(&quot;cf-hash&quot;))return t[e]}();if(t&amp;&amp;t.previousSibling){var e,r,n,i,c=t.previousSibling,a=c.getAttribute(&quot;data-cfemail&quot;);if(a){for(e=&quot;&quot;,r=parseInt(a.substr(0,2),16),n=2;a.length-n;n+=2)i=parseInt(a.substr(n,2),16)^r,e+=String.fromCharCode(i);e=document.createTextNode(e),c.parentNode.replaceChild(e,c)}}}catch(u){}}();/* ]]&gt; */&lt;/script&gt;\nFormat settings, CABAC           : Yes\nFormat settings, ReFrames        : 3 frames\nCodec ID                         : avc1\nCodec ID/Info                    : Advanced Video Coding\nDuration                         : 2h 28mn\nBit rate mode                    : Variable\nBit rate                         : 781 Kbps\nWidth                            : 702 pixels\nHeight                           : 554 pixels\nDisplay aspect ratio             : 16:9\nFrame rate mode                  : Variable\nFrame rate                       : 25.000 fps\nMinimum frame rate               : 12.500 fps\nMaximum frame rate               : 25.000 fps\nResolution                       : 24 bits\nColorimetry                      : 4:2:0\nScan type                        : Progressive\nBits/(Pixel*Frame)               : 0.080\nStream size                      : 827 MiB (83%)\nWriting library                  : x264 core 65\n\n\nAudio\nID                               : 2\nFormat                           : AAC\nFormat/Info                      : Advanced Audio Codec\nFormat version                   : Version 4\nFormat profile                   : LC\nFormat settings, SBR             : No\nCodec ID                         : 40\nDuration                         : 2h 28mn\nBit rate mode                    : Variable\nBit rate                         : 160 Kbps\nMaximum bit rate                 : 219 Kbps\nChannel(s)                       : 2 channels\nChannel positions                : L R\nSampling rate                    : 48.0 KHz\nResolution                       : 16 bits\nStream size                      : 169 MiB (17%)\nLanguage                         : English\nEncoded date                     : UTC 2009-12-09 15:43:28\nTagged date                      : UTC 2009-12-09 23:24:39\n\n","torrent":{"xt":"urn:btih:64f607fbbe61ab2dbda3d40017e510fcb202158c","amp;dn":"JACKIE+BROWN+1997-IN+H.264+BY+WINKER","amp;tr":["udp%3A%2F%2Ftracker.openbittorrent.com%3A80","udp%3A%2F%2Fopen.demonii.com%3A1337","udp%3A%2F%2Ftracker.coppersurfer.tk%3A6969","udp%3A%2F%2Fexodus.desync.com%3A6969"],"infoHash":"64f607fbbe61ab2dbda3d40017e510fcb202158c","infoHashBuffer":{"type":"Buffer","data":[100,246,7,251,190,97,171,45,189,163,212,0,23,229,16,252,178,2,21,140]},"announce":[],"urlList":[]}}